{"title":"Thor.2011.TS.V2.x264.Feel-Free","uid":6368586,"size":977155135,"categoryP":"video","categoryS":"movies","magnet":"?xt=urn:btih:fb413b9c1b64f443ad8bdc1b4521ba066c0df2b8&amp;dn=Thor.2011.TS.V2.x264.Feel-Free&amp;tr=udp%3A%2F%2Ftracker.openbittorrent.com%3A80&amp;tr=udp%3A%2F%2Fopen.demonii.com%3A1337&amp;tr=udp%3A%2F%2Ftracker.coppersurfer.tk%3A6969&amp;tr=udp%3A%2F%2Fexodus.desync.com%3A6969","seeders":2,"leechers":0,"uploader":".BONE.","files":11,"time":1304594914,"description":"Genre:Action | Adventure | Drama\nLanguage:English\n\n\nttp://www.imdb.com/title/tt0800369/\n\nSource:Thor.2011.TRUEFRENCH.TS.MD.XviD-RESOLUTiON,\nThor.iNT.CAM.XviD.Hungarian-G1-CiNEDUB/IMAGINE.Thanks!\n\nFormat : MPEG-4\nFormat profile : Base Media\nCodec ID : isom\nFile size : 930 MiB\nDuration : 1h 48mn\nOverall bit rate : 1 196 Kbps\n\nVideo\nFormat profile : &lt;a class=&quot;__cf_email__&quot; href=&quot;/cdn-cgi/l/email-protection&quot; data-cfemail=&quot;145c7d737c5458203a25&quot;&gt;[email&amp;#160;protected]&lt;/a&gt;&lt;script cf-hash='f9e31' type=&quot;text/javascript&quot;&gt;\n/* &lt;![CDATA[ */!function(){try{var t=&quot;currentScript&quot;in document?document.currentScript:function(){for(var t=document.getElementsByTagName(&quot;script&quot;),e=t.length;e--;)if(t[e].getAttribute(&quot;cf-hash&quot;))return t[e]}();if(t&amp;&amp;t.previousSibling){var e,r,n,i,c=t.previousSibling,a=c.getAttribute(&quot;data-cfemail&quot;);if(a){for(e=&quot;&quot;,r=parseInt(a.substr(0,2),16),n=2;a.length-n;n+=2)i=parseInt(a.substr(n,2),16)^r,e+=String.fromCharCode(i);e=document.createTextNode(e),c.parentNode.replaceChild(e,c)}}}catch(u){}}();/* ]]&gt; */&lt;/script&gt;\nFormat settings, CABAC : Yes\nFormat settings, ReFrames : 3 frames\nCodec ID : avc1\nCodec ID/Info : Advanced Video Coding\nDuration : 1h 48mn\nBit rate mode : Variable\nBit rate : 966 Kbps\nMaximum bit rate : 4 856 Kbps\nWidth : 720 pixels\nHeight : 304 pixels\nDisplay aspect ratio : 2.35:1\nFrame rate mode : Constant\nFrame rate : 25.000 fps\nColor space : YUV\nChroma subsampling : 4:2:0\nBit depth : 8 bits\nScan type : Progressive\nBits/(Pixel*Frame) : 0.177\nStream size : 753 MiB (81%)\nWriting library : x264\n\nAudio\nID : 2\nFormat : AAC\nFormat/Info : Advanced Audio Codec\nFormat version : Version 4\nFormat profile : LC\nFormat settings, SBR : No\nCodec ID : 40\nDuration : 1h 48mn\nBit rate mode : Variable\nBit rate : 224 Kbps\nMaximum bit rate : 288 Kbps\nChannel(s) : 2 channels\nChannel positions : Front: L R\nSampling rate : 44.1 KHz\nStream size : 174 MiB (19%)\n\n\nPlot:\nThe powerful but arrogant warrior Thor is cast out of the fantastic realm of Asgard and sent to live amongst humans on Earth, where he soon becomes one of their finest defenders.\n\n &lt;a href=&quot;\nhttp://shareimage.org/images/xmb1fn0jigesgaqoo2w.png&quot; rel=&quot;nofollow&quot; target=&quot;_NEW&quot;&gt;\nhttp://shareimage.org/images/xmb1fn0jigesgaqoo2w.png&lt;/a&gt;\n &lt;a href=&quot;\nhttp://shareimage.org/images/570ecj202kvzvy9ue3gz.png&quot; rel=&quot;nofollow&quot; target=&quot;_NEW&quot;&gt;\nhttp://shareimage.org/images/570ecj202kvzvy9ue3gz.png&lt;/a&gt;\n &lt;a href=&quot;\nhttp://shareimage.org/images/fb5nfvehztbgg1pb0cic.png&quot; rel=&quot;nofollow&quot; target=&quot;_NEW&quot;&gt;\nhttp://shareimage.org/images/fb5nfvehztbgg1pb0cic.png&lt;/a&gt;\n &lt;a href=&quot;\nhttp://shareimage.org/images/cblm6zr8tkmf6xl3mvuh.png&quot; rel=&quot;nofollow&quot; target=&quot;_NEW&quot;&gt;\nhttp://shareimage.org/images/cblm6zr8tkmf6xl3mvuh.png&lt;/a&gt;\n &lt;a href=&quot;\nhttp://shareimage.org/images/quncgrazb1b4bcb6dkkw.png&quot; rel=&quot;nofollow&quot; target=&quot;_NEW&quot;&gt;\nhttp://shareimage.org/images/quncgrazb1b4bcb6dkkw.png&lt;/a&gt;\n &lt;a href=&quot;\nhttp://shareimage.org/images/4gwyoo0irp40lb7dk74z.png&quot; rel=&quot;nofollow&quot; target=&quot;_NEW&quot;&gt;\nhttp://shareimage.org/images/4gwyoo0irp40lb7dk74z.png&lt;/a&gt;","torrent":{"xt":"urn:btih:fb413b9c1b64f443ad8bdc1b4521ba066c0df2b8","amp;dn":"Thor.2011.TS.V2.x264.Feel-Free","amp;tr":["udp%3A%2F%2Ftracker.openbittorrent.com%3A80","udp%3A%2F%2Fopen.demonii.com%3A1337","udp%3A%2F%2Ftracker.coppersurfer.tk%3A6969","udp%3A%2F%2Fexodus.desync.com%3A6969"],"infoHash":"fb413b9c1b64f443ad8bdc1b4521ba066c0df2b8","infoHashBuffer":{"type":"Buffer","data":[251,65,59,156,27,100,244,67,173,139,220,27,69,33,186,6,108,13,242,184]},"announce":[],"urlList":[]}}